<?xml version="1.0" standalone="yes"?>

<svg version="1.1" viewBox="0.0 0.0 550.0 275.0" fill="none" stroke="none" stroke-linecap="square" stroke-miterlimit="10" xmlns="http://www.w3.org/2000/svg" xmlns:xlink="http://www.w3.org/1999/xlink"><clipPath id="p.0"><path d="m0 0l960.0 0l0 720.0l-960.0 0l0 -720.0z" clip-rule="nonzero"></path></clipPath><g clip-path="url(#p.0)"><path fill="#000000" fill-opacity="0.0" d="m0 0l960.0 0l0 720.0l-960.0 0z" fill-rule="evenodd"></path><path fill="#cfe2f3" d="m40.0 40.56693l481.3858 0l0 215.43307l-481.3858 0z" fill-rule="evenodd"></path><path stroke="#000000" stroke-width="1.0" stroke-linejoin="round" stroke-linecap="butt" d="m40.0 40.56693l481.3858 0l0 215.43307l-481.3858 0z" fill-rule="evenodd"></path><path fill="#000000" fill-opacity="0.0" d="m40.0 40.56693l481.3858 0l0 30.582676l-481.3858 0z" fill-rule="evenodd"></path><path fill="#000000" d="m238.8752 63.815052q0 1.0000038 -0.375 1.7343788q-0.359375 0.734375 -1.03125 1.21875q-0.65625 0.46875 -1.5625 0.703125q-0.90625 0.234375 -1.984375 0.234375q-0.953125 0 -1.84375 -0.125q-0.890625 -0.109375 -1.765625 -0.359375l0 -2.265625q0.4375 0.15625 0.890625 0.296875q0.46875 0.125 0.9375 0.21875q0.46875 0.09375 0.921875 0.15625q0.46875 0.046875 0.90625 0.046875q0.65625 0 1.109375 -0.109375q0.453125 -0.109375 0.734375 -0.296875q0.296875 -0.203125 0.421875 -0.46875q0.125 -0.265625 0.125 -0.59375q0 -0.4531288 -0.25 -0.7500038q-0.25 -0.296875 -0.671875 -0.53125q-0.421875 -0.234375 -0.953125 -0.421875q-0.53125 -0.1875 -1.09375 -0.390625q-0.546875 -0.21875 -1.078125 -0.484375q-0.53125 -0.265625 -0.953125 -0.671875q-0.40625 -0.40625 -0.671875 -0.953125q-0.25 -0.546875 -0.25 -1.328125q0 -0.71875 0.25 -1.359375q0.265625 -0.640625 0.8125 -1.109375q0.5625 -0.484375 1.4375 -0.765625q0.875 -0.28125 2.109375 -0.28125q0.359375 0 0.75 0.03125q0.40625 0.03125 0.78125 0.09375q0.390625 0.046875 0.75 0.109375q0.359375 0.0625 0.65625 0.140625l0 2.09375q-0.296875 -0.109375 -0.65625 -0.203125q-0.34375 -0.09375 -0.734375 -0.15625q-0.375 -0.078125 -0.75 -0.109375q-0.375 -0.046875 -0.71875 -0.046875q-0.609375 0 -1.03125 0.109375q-0.40625 0.09375 -0.6875 0.265625q-0.265625 0.171875 -0.390625 0.421875q-0.109375 0.25 -0.109375 0.546875q0 0.390625 0.25 0.671875q0.265625 0.265625 0.6875 0.484375q0.421875 0.21875 0.953125 0.40625q0.53125 0.1875 1.09375 0.40625q0.5625 0.21875 1.09375 0.5q0.53125 0.265625 0.953125 0.671875q0.421875 0.390625 0.671875 0.9375q0.265625 0.546875 0.265625 1.28125zm7.9916687 3.6718788l-0.0625 -1.234375q-0.296875 0.3125 -0.625 0.578125q-0.3125 0.265625 -0.703125 0.46875q-0.390625 0.1875 -0.859375 0.296875q-0.453125 0.109375 -1.0 0.109375q-0.71875 0 -1.265625 -0.21875q-0.546875 -0.21875 -0.921875 -0.59375q-0.375 -0.375 -0.5625 -0.90625q-0.1875 -0.546875 -0.1875 -1.203125q0 -0.671875 0.28125 -1.2343788q0.28125 -0.5625 0.859375 -0.96875q0.578125 -0.40625 1.4375 -0.640625q0.875 -0.234375 2.046875 -0.234375l1.234375 0l0 -0.5625q0 -0.359375 -0.109375 -0.65625q-0.09375 -0.296875 -0.328125 -0.5q-0.21875 -0.203125 -0.578125 -0.3125q-0.359375 -0.109375 -0.890625 -0.109375q-0.84375 0 -1.65625 0.1875q-0.8125 0.1875 -1.5625 0.53125l0 -1.8125q0.671875 -0.265625 1.546875 -0.4375q0.890625 -0.171875 1.859375 -0.171875q1.046875 0 1.796875 0.203125q0.75 0.1875 1.234375 0.59375q0.484375 0.390625 0.71875 1.0q0.234375 0.59375 0.234375 1.390625l0 6.437504l-1.9375 0zm-0.328125 -4.171879l-1.375 0q-0.578125 0 -0.984375 0.125q-0.390625 0.109375 -0.640625 0.3125q-0.25 0.1875 -0.375 0.4375038q-0.109375 0.25 -0.109375 0.546875q0 0.5625 0.359375 0.875q0.375 0.296875 1.015625 0.296875q0.46875 0 0.984375 -0.34375q0.515625 -0.34375 1.125 -0.984375l0 -1.2656288zm9.944778 4.171879l-2.6093597 0l-3.734375 -9.421879l2.515625 0l1.953125 5.34375l0.59375 1.7187538l0.578125 -1.6562538l1.9687347 -5.40625l2.4375 0l-3.703125 9.421879zm13.194824 -5.437504q0 0.234375 -0.015625 0.609375q-0.015625 0.359375 -0.046875 0.6875l-6.1875 0q0 0.625 0.1875 1.1093788q0.1875 0.46875 0.53125 0.78125q0.359375 0.3125 0.84375 0.484375q0.484375 0.171875 1.078125 0.171875q0.6875 0 1.46875 -0.109375q0.78125 -0.109375 1.625 -0.34375l0 1.796875q-0.359375 0.09375 -0.78125 0.1875q-0.421875 0.078125 -0.875 0.140625q-0.4375 0.078125 -0.90625 0.109375q-0.453125 0.03125 -0.875 0.03125q-1.078125 0 -1.9375 -0.3125q-0.84375 -0.3125 -1.4375 -0.90625q-0.59375 -0.59375 -0.90625 -1.46875q-0.3125 -0.890625 -0.3125 -2.0468788q0 -1.15625 0.3125 -2.09375q0.3125 -0.9375 0.890625 -1.609375q0.578125 -0.671875 1.390625 -1.03125q0.828125 -0.375 1.828125 -0.375q1.015625 0 1.78125 0.3125q0.765625 0.296875 1.28125 0.859375q0.53125 0.5625 0.796875 1.328125q0.265625 0.765625 0.265625 1.6875zm-2.296875 -0.328125q0 -0.546875 -0.15625 -0.953125q-0.140625 -0.421875 -0.390625 -0.6875q-0.25 -0.28125 -0.59375 -0.40625q-0.34375 -0.125 -0.734375 -0.125q-0.84375 0 -1.390625 0.578125q-0.546875 0.5625 -0.65625 1.59375l3.921875 0zm10.272888 5.765629l-0.0625 -1.390625q-0.296875 0.359375 -0.609375 0.65625q-0.3125 0.296875 -0.671875 0.515625q-0.359375 0.203125 -0.78125 0.3125q-0.40625 0.125 -0.90625 0.125q-0.84375 0 -1.5 -0.328125q-0.640625 -0.34375 -1.078125 -0.953125q-0.4375 -0.625 -0.671875 -1.5q-0.234375 -0.890625 -0.234375 -1.9687538q0 -1.296875 0.359375 -2.25q0.375 -0.953125 1.015625 -1.578125q0.65625 -0.625 1.546875 -0.921875q0.890625 -0.3125 1.9375 -0.3125q0.359375 0 0.71875 0.046875q0.359375 0.046875 0.625 0.125l0 -3.6875l2.265625 0l0 13.109379l-1.953125 0zm-4.140625 -4.640629q0 0.78125 0.109375 1.3437538q0.109375 0.546875 0.3125 0.90625q0.21875 0.34375 0.515625 0.515625q0.3125 0.15625 0.703125 0.15625q0.5625 0 1.078125 -0.46875q0.53125 -0.46875 1.109375 -1.265625l0 -4.125004q-0.265625 -0.109375 -0.65625 -0.171875q-0.390625 -0.0625 -0.796875 -0.0625q-0.546875 0 -0.984375 0.234375q-0.4375 0.21875 -0.75 0.625q-0.296875 0.40625 -0.46875 1.0q-0.171875 0.578125 -0.171875 1.3125zm15.194824 4.640629l-0.21875 -6.859379l-0.09375 -2.734375l-0.578125 1.859375l-1.34375 4.125l-1.4375 0l-1.203125 -4.125l-0.515625 -1.859375l-0.0625 2.6875l-0.203125 6.906254l-1.9375 0l0.59375 -12.125004l2.578125 0l1.0625 3.4375l0.515625 1.9375l0.5 -1.828125l1.125 -3.546875l2.625 0l0.609375 12.125004l-2.015625 0zm12.022888 -4.781254q0 1.109375 -0.328125 2.0312538q-0.3125 0.921875 -0.90625 1.578125q-0.59375 0.65625 -1.453125 1.03125q-0.859375 0.359375 -1.96875 0.359375q-1.046875 0 -1.875 -0.3125q-0.8125 -0.3125 -1.390625 -0.90625q-0.578125 -0.609375 -0.890625 -1.515625q-0.296875 -0.921875 -0.296875 -2.1406288q0 -1.125 0.3125 -2.03125q0.328125 -0.921875 0.921875 -1.578125q0.59375 -0.65625 1.453125 -1.0q0.875 -0.359375 1.953125 -0.359375q1.0625 0 1.890625 0.3125q0.828125 0.296875 1.390625 0.921875q0.578125 0.609375 0.875 1.515625q0.3125 0.90625 0.3125 2.09375zm-2.359375 0.046875q0 -1.46875 -0.5625 -2.203125q-0.546875 -0.734375 -1.625 -0.734375q-0.59375 0 -1.015625 0.234375q-0.40625 0.234375 -0.671875 0.640625q-0.265625 0.390625 -0.390625 0.9375q-0.125 0.53125 -0.125 1.140625q0 1.4843788 0.59375 2.2343788q0.59375 0.734375 1.609375 0.734375q0.578125 0 0.984375 -0.21875q0.421875 -0.234375 0.671875 -0.625q0.265625 -0.40625 0.390625 -0.9531288q0.140625 -0.546875 0.140625 -1.1875zm10.054199 4.734379l-0.0625 -1.390625q-0.296875 0.359375 -0.609375 0.65625q-0.3125 0.296875 -0.671875 0.515625q-0.359375 0.203125 -0.78125 0.3125q-0.40625 0.125 -0.90625 0.125q-0.84375 0 -1.5 -0.328125q-0.640625 -0.34375 -1.078125 -0.953125q-0.4375 -0.625 -0.671875 -1.5q-0.234375 -0.890625 -0.234375 -1.9687538q0 -1.296875 0.359375 -2.25q0.375 -0.953125 1.015625 -1.578125q0.65625 -0.625 1.546875 -0.921875q0.890625 -0.3125 1.9375 -0.3125q0.359375 0 0.71875 0.046875q0.359375 0.046875 0.625 0.125l0 -3.6875l2.265625 0l0 13.109379l-1.953125 0zm-4.140625 -4.640629q0 0.78125 0.109375 1.3437538q0.109375 0.546875 0.3125 0.90625q0.21875 0.34375 0.515625 0.515625q0.3125 0.15625 0.703125 0.15625q0.5625 0 1.078125 -0.46875q0.53125 -0.46875 1.109375 -1.265625l0 -4.125004q-0.265625 -0.109375 -0.65625 -0.171875q-0.390625 -0.0625 -0.796875 -0.0625q-0.546875 0 -0.984375 0.234375q-0.4375 0.21875 -0.75 0.625q-0.296875 0.40625 -0.46875 1.0q-0.171875 0.578125 -0.171875 1.3125zm16.679138 -0.796875q0 0.234375 -0.015625 0.609375q-0.015625 0.359375 -0.046875 0.6875l-6.1875 0q0 0.625 0.1875 1.1093788q0.1875 0.46875 0.53125 0.78125q0.359375 0.3125 0.84375 0.484375q0.484375 0.171875 1.078125 0.171875q0.6875 0 1.46875 -0.109375q0.78125 -0.109375 1.625 -0.34375l0 1.796875q-0.359375 0.09375 -0.78125 0.1875q-0.421875 0.078125 -0.875 0.140625q-0.4375 0.078125 -0.90625 0.109375q-0.453125 0.03125 -0.875 0.03125q-1.078125 0 -1.9375 -0.3125q-0.84375 -0.3125 -1.4375 -0.90625q-0.59375 -0.59375 -0.90625 -1.46875q-0.3125 -0.890625 -0.3125 -2.0468788q0 -1.15625 0.3125 -2.09375q0.3125 -0.9375 0.890625 -1.609375q0.578125 -0.671875 1.390625 -1.03125q0.828125 -0.375 1.828125 -0.375q1.015625 0 1.78125 0.3125q0.765625 0.296875 1.28125 0.859375q0.53125 0.5625 0.796875 1.328125q0.265625 0.765625 0.265625 1.6875zm-2.296875 -0.328125q0 -0.546875 -0.15625 -0.953125q-0.140625 -0.421875 -0.390625 -0.6875q-0.25 -0.28125 -0.59375 -0.40625q-0.34375 -0.125 -0.734375 -0.125q-0.84375 0 -1.390625 0.578125q-0.546875 0.5625 -0.65625 1.59375l3.921875 0zm7.382324 -5.578125l-2.65625 0l0 -1.765625l4.984375 0l0 11.343754l2.71875 0l0 1.765625l-8.03125 0l0 -1.765625l2.984375 0l0 -9.578129z" fill-rule="nonzero"></path><path fill="#fff2cc" d="m67.33762 191.48183l129.25983 0l0 35.527557l-129.25983 0z" fill-rule="evenodd"></path><path stroke="#000000" stroke-width="1.0" stroke-linejoin="round" stroke-linecap="butt" d="m67.33762 191.48183l129.25983 0l0 35.527557l-129.25983 0z" fill-rule="evenodd"></path><path fill="#000000" d="m94.8441 213.28181l-1.109375 0l-0.171875 -5.171875l-0.0625 -1.984375l-0.390625 1.15625l-1.21875 3.296875l-0.78125 0l-1.171875 -3.171875l-0.390625 -1.28125l-0.015625 2.078125l-0.15625 5.078125l-1.0625 0l0.40625 -8.296875l1.34375 0l1.109375 3.125l0.359375 1.046875l0.359375 -1.046875l1.171875 -3.125l1.375 0l0.40625 8.296875zm6.8903656 -3.515625q0 0.234375 -0.015625 0.390625q0 0.15625 -0.015625 0.296875l-4.484375 0q0 0.96875 0.546875 1.5q0.546875 0.515625 1.578125 0.515625q0.28125 0 0.5625 -0.015625q0.28125 -0.015625 0.53125 -0.046875q0.265625 -0.046875 0.5 -0.09375q0.25 -0.046875 0.453125 -0.109375l0 0.90625q-0.453125 0.125 -1.03125 0.203125q-0.5625 0.078125 -1.171875 0.078125q-0.8125 0 -1.40625 -0.21875q-0.59375 -0.21875 -0.96875 -0.640625q-0.375 -0.421875 -0.5625 -1.03125q-0.171875 -0.625 -0.171875 -1.390625q0 -0.671875 0.1875 -1.265625q0.1875 -0.609375 0.5625 -1.0625q0.375 -0.453125 0.90625 -0.71875q0.546875 -0.265625 1.234375 -0.265625q0.65625 0 1.171875 0.21875q0.515625 0.203125 0.859375 0.59375q0.359375 0.375 0.546875 0.921875q0.1875 0.546875 0.1875 1.234375zm-1.15625 -0.171875q0.015625 -0.421875 -0.09375 -0.765625q-0.09375 -0.359375 -0.3125 -0.609375q-0.203125 -0.25 -0.53125 -0.390625q-0.3125 -0.15625 -0.71875 -0.15625q-0.375 0 -0.671875 0.140625q-0.296875 0.140625 -0.515625 0.40625q-0.203125 0.25 -0.34375 0.609375q-0.125 0.34375 -0.171875 0.765625l3.359375 0zm8.234116 3.59375q-0.375 0.09375 -0.78125 0.140625q-0.390625 0.046875 -0.8125 0.046875q-1.203125 0 -1.796875 -0.546875q-0.578125 -0.546875 -0.578125 -1.671875l0 -3.328125l-1.78125 0l0 -0.921875l1.78125 0l0 -1.75l1.09375 -0.28125l0 2.03125l2.875 0l0 0.921875l-2.875 0l0 3.25q0 0.671875 0.359375 1.015625q0.375 0.34375 1.09375 0.34375q0.296875 0 0.65625 -0.046875q0.359375 -0.046875 0.765625 -0.15625l0 0.953125zm6.2809906 0.09375l-0.03125 -0.859375q-0.515625 0.515625 -1.0625 0.75q-0.53125 0.21875 -1.109375 0.21875q-0.546875 0 -0.9375 -0.140625q-0.390625 -0.140625 -0.640625 -0.375q-0.25 -0.25 -0.375 -0.578125q-0.109375 -0.328125 -0.109375 -0.71875q0 -0.953125 0.703125 -1.5q0.71875 -0.546875 2.125 -0.546875l1.3125 0l0 -0.546875q0 -0.578125 -0.359375 -0.90625q-0.359375 -0.34375 -1.109375 -0.34375q-0.53125 0 -1.0625 0.125q-0.515625 0.109375 -1.078125 0.34375l0 -1.0q0.21875 -0.078125 0.46875 -0.140625q0.25 -0.078125 0.53125 -0.140625q0.296875 -0.0625 0.609375 -0.09375q0.3125 -0.03125 0.625 -0.03125q0.578125 0 1.03125 0.125q0.46875 0.125 0.78125 0.390625q0.328125 0.25 0.5 0.65625q0.171875 0.390625 0.171875 0.921875l0 4.390625l-0.984375 0zm-0.125 -2.90625l-1.390625 0q-0.421875 0 -0.71875 0.09375q-0.296875 0.078125 -0.484375 0.234375q-0.1875 0.140625 -0.28125 0.359375q-0.09375 0.21875 -0.09375 0.484375q0 0.171875 0.046875 0.34375q0.0625 0.171875 0.1875 0.3125q0.125 0.125 0.328125 0.203125q0.203125 0.0625 0.5 0.0625q0.375 0 0.859375 -0.21875q0.5 -0.234375 1.046875 -0.734375l0 -1.140625zm8.734116 -3.96875q-0.46875 -0.25 -0.96875 -0.375q-0.484375 -0.140625 -1.046875 -0.140625q-0.671875 0 -1.1875 0.234375q-0.515625 0.234375 -0.875 0.671875q-0.34375 0.421875 -0.53125 1.03125q-0.1875 0.59375 -0.1875 1.328125q0 0.75 0.15625 1.359375q0.15625 0.59375 0.46875 1.015625q0.328125 0.421875 0.828125 0.65625q0.515625 0.21875 1.21875 0.21875q0.125 0 0.265625 -0.015625q0.140625 -0.015625 0.265625 -0.03125q0.140625 -0.03125 0.265625 -0.0625q0.140625 -0.03125 0.25 -0.0625l0 -2.640625l-1.703125 0l0 -0.9375l2.8125 0l0 4.234375q-0.265625 0.125 -0.546875 0.21875q-0.28125 0.09375 -0.59375 0.15625q-0.296875 0.0625 -0.59375 0.09375q-0.296875 0.03125 -0.578125 0.03125q-0.859375 0 -1.546875 -0.265625q-0.671875 -0.265625 -1.15625 -0.78125q-0.46875 -0.53125 -0.734375 -1.3125q-0.25 -0.78125 -0.25 -1.8125q0 -1.015625 0.28125 -1.828125q0.28125 -0.8125 0.796875 -1.375q0.53125 -0.5625 1.25 -0.84375q0.734375 -0.296875 1.609375 -0.296875q0.546875 0 1.046875 0.09375q0.515625 0.09375 0.984375 0.3125l0 1.125zm2.2184906 0.5l1.0 0l0.03125 1.171875q0.5625 -0.671875 1.109375 -0.96875q0.5625 -0.3125 1.109375 -0.3125q1.0 0 1.5 0.640625q0.515625 0.640625 0.484375 1.90625l-1.125 0q0.03125 -0.84375 -0.234375 -1.21875q-0.265625 -0.375 -0.78125 -0.375q-0.21875 0 -0.453125 0.078125q-0.21875 0.078125 -0.453125 0.25q-0.234375 0.171875 -0.5 0.453125q-0.265625 0.265625 -0.578125 0.65625l0 4.09375l-1.109375 0l0 -6.375zm11.155991 6.375l-0.03125 -0.859375q-0.515625 0.515625 -1.0625 0.75q-0.53125 0.21875 -1.109375 0.21875q-0.546875 0 -0.9375 -0.140625q-0.390625 -0.140625 -0.640625 -0.375q-0.25 -0.25 -0.375 -0.578125q-0.109375 -0.328125 -0.109375 -0.71875q0 -0.953125 0.703125 -1.5q0.71875 -0.546875 2.125 -0.546875l1.3125 0l0 -0.546875q0 -0.578125 -0.359375 -0.90625q-0.359375 -0.34375 -1.109375 -0.34375q-0.53125 0 -1.0625 0.125q-0.515625 0.109375 -1.078125 0.34375l0 -1.0q0.21875 -0.078125 0.46875 -0.140625q0.25 -0.078125 0.53125 -0.140625q0.296875 -0.0625 0.609375 -0.09375q0.3125 -0.03125 0.625 -0.03125q0.578125 0 1.03125 0.125q0.46875 0.125 0.78125 0.390625q0.328125 0.25 0.5 0.65625q0.171875 0.390625 0.171875 0.921875l0 4.390625l-0.984375 0zm-0.125 -2.90625l-1.390625 0q-0.421875 0 -0.71875 0.09375q-0.296875 0.078125 -0.484375 0.234375q-0.1875 0.140625 -0.28125 0.359375q-0.09375 0.21875 -0.09375 0.484375q0 0.171875 0.046875 0.34375q0.0625 0.171875 0.1875 0.3125q0.125 0.125 0.328125 0.203125q0.203125 0.0625 0.5 0.0625q0.375 0 0.859375 -0.21875q0.5 -0.234375 1.046875 -0.734375l0 -1.140625zm8.812241 -0.390625q0 0.84375 -0.25 1.484375q-0.234375 0.625 -0.65625 1.046875q-0.421875 0.421875 -1.0 0.640625q-0.5625 0.203125 -1.21875 0.203125q-0.3125 0 -0.609375 -0.03125q-0.296875 -0.03125 -0.609375 -0.109375l0 2.671875l-1.109375 0l0 -8.984375l0.984375 0l0.0625 1.0625q0.484375 -0.640625 1.015625 -0.90625q0.546875 -0.265625 1.171875 -0.265625q0.546875 0 0.953125 0.234375q0.421875 0.21875 0.703125 0.640625q0.28125 0.40625 0.421875 1.0q0.140625 0.578125 0.140625 1.3125zm-1.140625 0.046875q0 -0.5 -0.078125 -0.921875q-0.0625 -0.421875 -0.21875 -0.71875q-0.15625 -0.296875 -0.40625 -0.453125q-0.25 -0.171875 -0.59375 -0.171875q-0.203125 0 -0.421875 0.0625q-0.21875 0.0625 -0.453125 0.21875q-0.234375 0.15625 -0.5 0.421875q-0.25 0.25 -0.53125 0.625l0 3.09375q0.296875 0.125 0.625 0.203125q0.34375 0.078125 0.671875 0.078125q0.890625 0 1.390625 -0.609375q0.515625 -0.609375 0.515625 -1.828125zm8.140366 3.25l-1.109375 0l0 -4.0625q0 -0.75 -0.28125 -1.109375q-0.265625 -0.359375 -0.78125 -0.359375q-0.21875 0 -0.421875 0.0625q-0.1875 0.046875 -0.40625 0.203125q-0.203125 0.15625 -0.453125 0.40625q-0.25 0.25 -0.5625 0.625l0 4.234375l-1.109375 0l0 -8.96875l1.109375 0l0 2.59375l-0.046875 1.0q0.265625 -0.3125 0.515625 -0.515625q0.25 -0.21875 0.5 -0.34375q0.25 -0.140625 0.5 -0.1875q0.265625 -0.0625 0.546875 -0.0625q0.953125 0 1.46875 0.578125q0.53125 0.578125 0.53125 1.75l0 4.15625zm7.8747406 -4.234375q0 0.59375 -0.09375 1.140625q-0.09375 0.546875 -0.296875 1.015625q-0.203125 0.46875 -0.53125 0.859375q-0.3125 0.375 -0.796875 0.65625q-0.46875 0.265625 -1.09375 0.421875q-0.609375 0.140625 -1.40625 0.140625l-1.78125 0l0 -8.296875l2.140625 0q1.953125 0 2.90625 1.0q0.953125 1.0 0.953125 3.0625zm-1.1875 0.078125q0 -0.890625 -0.171875 -1.5q-0.15625 -0.609375 -0.5 -0.984375q-0.328125 -0.375 -0.84375 -0.53125q-0.5 -0.171875 -1.1875 -0.171875l-0.96875 0l0 6.359375l0.84375 0q2.828125 0 2.828125 -3.171875zm8.234116 0.640625q0 0.234375 -0.015625 0.390625q0 0.15625 -0.015625 0.296875l-4.484375 0q0 0.96875 0.546875 1.5q0.546875 0.515625 1.578125 0.515625q0.28125 0 0.5625 -0.015625q0.28125 -0.015625 0.53125 -0.046875q0.265625 -0.046875 0.5 -0.09375q0.25 -0.046875 0.453125 -0.109375l0 0.90625q-0.453125 0.125 -1.03125 0.203125q-0.5625 0.078125 -1.171875 0.078125q-0.8125 0 -1.40625 -0.21875q-0.59375 -0.21875 -0.96875 -0.640625q-0.375 -0.421875 -0.5625 -1.03125q-0.171875 -0.625 -0.171875 -1.390625q0 -0.671875 0.1875 -1.265625q0.1875 -0.609375 0.5625 -1.0625q0.375 -0.453125 0.90625 -0.71875q0.546875 -0.265625 1.234375 -0.265625q0.65625 0 1.171875 0.21875q0.515625 0.203125 0.859375 0.59375q0.359375 0.375 0.546875 0.921875q0.1875 0.546875 0.1875 1.234375zm-1.15625 -0.171875q0.015625 -0.421875 -0.09375 -0.765625q-0.09375 -0.359375 -0.3125 -0.609375q-0.203125 -0.25 -0.53125 -0.390625q-0.3125 -0.15625 -0.71875 -0.15625q-0.375 0 -0.671875 0.140625q-0.296875 0.140625 -0.515625 0.40625q-0.203125 0.25 -0.34375 0.609375q-0.125 0.34375 -0.171875 0.765625l3.359375 0zm8.749741 -4.25q-0.875 -0.1875 -1.5 -0.1875q-1.484375 0 -1.484375 1.5625l0 1.109375l2.78125 0l0 0.921875l-2.78125 0l0 4.53125l-1.125 0l0 -4.53125l-2.046875 0l0 -0.921875l2.046875 0l0 -1.046875q0 -2.546875 2.65625 -2.546875q0.65625 0 1.453125 0.15625l0 0.953125zm-6.671875 1.5625l0 0z" fill-rule="nonzero"></path><path fill="#fff2cc" d="m219.33762 191.48183l129.25986 0l0 35.527557l-129.25986 0z" fill-rule="evenodd"></path><path stroke="#000000" stroke-width="1.0" stroke-linejoin="round" stroke-linecap="butt" d="m219.33762 191.48183l129.25986 0l0 35.527557l-129.25986 0z" fill-rule="evenodd"></path><path fill="#000000" d="m246.8441 213.28181l-1.109375 0l-0.171875 -5.171875l-0.0625 -1.984375l-0.390625 1.15625l-1.21875 3.296875l-0.78125 0l-1.171875 -3.171875l-0.390625 -1.28125l-0.015625 2.078125l-0.15625 5.078125l-1.0625 0l0.40625 -8.296875l1.34375 0l1.109375 3.125l0.359375 1.046875l0.359375 -1.046875l1.171875 -3.125l1.375 0l0.40625 8.296875zm6.8903656 -3.515625q0 0.234375 -0.015625 0.390625q0 0.15625 -0.015625 0.296875l-4.484375 0q0 0.96875 0.546875 1.5q0.546875 0.515625 1.578125 0.515625q0.28125 0 0.5625 -0.015625q0.28125 -0.015625 0.53125 -0.046875q0.265625 -0.046875 0.5 -0.09375q0.25 -0.046875 0.453125 -0.109375l0 0.90625q-0.453125 0.125 -1.03125 0.203125q-0.5625 0.078125 -1.171875 0.078125q-0.8125 0 -1.40625 -0.21875q-0.59375 -0.21875 -0.96875 -0.640625q-0.375 -0.421875 -0.5625 -1.03125q-0.171875 -0.625 -0.171875 -1.390625q0 -0.671875 0.1875 -1.265625q0.1875 -0.609375 0.5625 -1.0625q0.375 -0.453125 0.90625 -0.71875q0.546875 -0.265625 1.234375 -0.265625q0.65625 0 1.171875 0.21875q0.515625 0.203125 0.859375 0.59375q0.359375 0.375 0.546875 0.921875q0.1875 0.546875 0.1875 1.234375zm-1.15625 -0.171875q0.015625 -0.421875 -0.09375 -0.765625q-0.09375 -0.359375 -0.3125 -0.609375q-0.203125 -0.25 -0.53125 -0.390625q-0.3125 -0.15625 -0.71875 -0.15625q-0.375 0 -0.671875 0.140625q-0.296875 0.140625 -0.515625 0.40625q-0.203125 0.25 -0.34375 0.609375q-0.125 0.34375 -0.171875 0.765625l3.359375 0zm8.2341 3.59375q-0.375 0.09375 -0.78125 0.140625q-0.390625 0.046875 -0.8125 0.046875q-1.203125 0 -1.796875 -0.546875q-0.578125 -0.546875 -0.578125 -1.671875l0 -3.328125l-1.7812347 0l0 -0.921875l1.7812347 0l0 -1.75l1.09375 -0.28125l0 2.03125l2.875 0l0 0.921875l-2.875 0l0 3.25q0 0.671875 0.359375 1.015625q0.375 0.34375 1.09375 0.34375q0.296875 0 0.65625 -0.046875q0.359375 -0.046875 0.765625 -0.15625l0 0.953125zm6.281006 0.09375l-0.03125 -0.859375q-0.515625 0.515625 -1.0625 0.75q-0.53125 0.21875 -1.109375 0.21875q-0.546875 0 -0.9375 -0.140625q-0.390625 -0.140625 -0.640625 -0.375q-0.25 -0.25 -0.375 -0.578125q-0.109375 -0.328125 -0.109375 -0.71875q0 -0.953125 0.703125 -1.5q0.71875 -0.546875 2.125 -0.546875l1.3125 0l0 -0.546875q0 -0.578125 -0.359375 -0.90625q-0.359375 -0.34375 -1.109375 -0.34375q-0.53125 0 -1.0625 0.125q-0.515625 0.109375 -1.078125 0.34375l0 -1.0q0.21875 -0.078125 0.46875 -0.140625q0.25 -0.078125 0.53125 -0.140625q0.296875 -0.0625 0.609375 -0.09375q0.3125 -0.03125 0.625 -0.03125q0.578125 0 1.03125 0.125q0.46875 0.125 0.78125 0.390625q0.328125 0.25 0.5 0.65625q0.171875 0.390625 0.171875 0.921875l0 4.390625l-0.984375 0zm-0.125 -2.90625l-1.390625 0q-0.421875 0 -0.71875 0.09375q-0.296875 0.078125 -0.484375 0.234375q-0.1875 0.140625 -0.28125 0.359375q-0.09375 0.21875 -0.09375 0.484375q0 0.171875 0.046875 0.34375q0.0625 0.171875 0.1875 0.3125q0.125 0.125 0.328125 0.203125q0.203125 0.0625 0.5 0.0625q0.375 0 0.859375 -0.21875q0.5 -0.234375 1.046875 -0.734375l0 -1.140625zm8.7341 -3.96875q-0.46875 -0.25 -0.96875 -0.375q-0.484375 -0.140625 -1.046875 -0.140625q-0.671875 0 -1.1875 0.234375q-0.515625 0.234375 -0.875 0.671875q-0.34375 0.421875 -0.53125 1.03125q-0.1875 0.59375 -0.1875 1.328125q0 0.75 0.15625 1.359375q0.15625 0.59375 0.46875 1.015625q0.328125 0.421875 0.828125 0.65625q0.515625 0.21875 1.21875 0.21875q0.125 0 0.265625 -0.015625q0.140625 -0.015625 0.265625 -0.03125q0.140625 -0.03125 0.265625 -0.0625q0.140625 -0.03125 0.25 -0.0625l0 -2.640625l-1.703125 0l0 -0.9375l2.8125 0l0 4.234375q-0.265625 0.125 -0.546875 0.21875q-0.28125 0.09375 -0.59375 0.15625q-0.296875 0.0625 -0.59375 0.09375q-0.296875 0.03125 -0.578125 0.03125q-0.859375 0 -1.546875 -0.265625q-0.671875 -0.265625 -1.15625 -0.78125q-0.46875 -0.53125 -0.734375 -1.3125q-0.25 -0.78125 -0.25 -1.8125q0 -1.015625 0.28125 -1.828125q0.28125 -0.8125 0.796875 -1.375q0.53125 -0.5625 1.25 -0.84375q0.734375 -0.296875 1.609375 -0.296875q0.546875 0 1.046875 0.09375q0.515625 0.09375 0.984375 0.3125l0 1.125zm2.2185059 0.5l1.0 0l0.03125 1.171875q0.5625 -0.671875 1.109375 -0.96875q0.5625 -0.3125 1.109375 -0.3125q1.0 0 1.5 0.640625q0.515625 0.640625 0.484375 1.90625l-1.125 0q0.03125 -0.84375 -0.234375 -1.21875q-0.265625 -0.375 -0.78125 -0.375q-0.21875 0 -0.453125 0.078125q-0.21875 0.078125 -0.453125 0.25q-0.234375 0.171875 -0.5 0.453125q-0.265625 0.265625 -0.578125 0.65625l0 4.09375l-1.109375 0l0 -6.375zm11.155975 6.375l-0.03125 -0.859375q-0.515625 0.515625 -1.0625 0.75q-0.53125 0.21875 -1.109375 0.21875q-0.546875 0 -0.9375 -0.140625q-0.390625 -0.140625 -0.640625 -0.375q-0.25 -0.25 -0.375 -0.578125q-0.109375 -0.328125 -0.109375 -0.71875q0 -0.953125 0.703125 -1.5q0.71875 -0.546875 2.125 -0.546875l1.3125 0l0 -0.546875q0 -0.578125 -0.359375 -0.90625q-0.359375 -0.34375 -1.109375 -0.34375q-0.53125 0 -1.0625 0.125q-0.515625 0.109375 -1.078125 0.34375l0 -1.0q0.21875 -0.078125 0.46875 -0.140625q0.25 -0.078125 0.53125 -0.140625q0.296875 -0.0625 0.609375 -0.09375q0.3125 -0.03125 0.625 -0.03125q0.578125 0 1.03125 0.125q0.46875 0.125 0.78125 0.390625q0.328125 0.25 0.5 0.65625q0.171875 0.390625 0.171875 0.921875l0 4.390625l-0.984375 0zm-0.125 -2.90625l-1.390625 0q-0.421875 0 -0.71875 0.09375q-0.296875 0.078125 -0.484375 0.234375q-0.1875 0.140625 -0.28125 0.359375q-0.09375 0.21875 -0.09375 0.484375q0 0.171875 0.046875 0.34375q0.0625 0.171875 0.1875 0.3125q0.125 0.125 0.328125 0.203125q0.203125 0.0625 0.5 0.0625q0.375 0 0.859375 -0.21875q0.5 -0.234375 1.046875 -0.734375l0 -1.140625zm8.812256 -0.390625q0 0.84375 -0.25 1.484375q-0.234375 0.625 -0.65625 1.046875q-0.421875 0.421875 -1.0 0.640625q-0.5625 0.203125 -1.21875 0.203125q-0.3125 0 -0.609375 -0.03125q-0.296875 -0.03125 -0.609375 -0.109375l0 2.671875l-1.109375 0l0 -8.984375l0.984375 0l0.0625 1.0625q0.484375 -0.640625 1.015625 -0.90625q0.546875 -0.265625 1.171875 -0.265625q0.546875 0 0.953125 0.234375q0.421875 0.21875 0.703125 0.640625q0.28125 0.40625 0.421875 1.0q0.140625 0.578125 0.140625 1.3125zm-1.140625 0.046875q0 -0.5 -0.078125 -0.921875q-0.0625 -0.421875 -0.21875 -0.71875q-0.15625 -0.296875 -0.40625 -0.453125q-0.25 -0.171875 -0.59375 -0.171875q-0.203125 0 -0.421875 0.0625q-0.21875 0.0625 -0.453125 0.21875q-0.234375 0.15625 -0.5 0.421875q-0.25 0.25 -0.53125 0.625l0 3.09375q0.296875 0.125 0.625 0.203125q0.34375 0.078125 0.671875 0.078125q0.890625 0 1.390625 -0.609375q0.515625 -0.609375 0.515625 -1.828125zm8.14035 3.25l-1.109375 0l0 -4.0625q0 -0.75 -0.28125 -1.109375q-0.265625 -0.359375 -0.78125 -0.359375q-0.21875 0 -0.421875 0.0625q-0.1875 0.046875 -0.40625 0.203125q-0.203125 0.15625 -0.453125 0.40625q-0.25 0.25 -0.5625 0.625l0 4.234375l-1.109375 0l0 -8.96875l1.109375 0l0 2.59375l-0.046875 1.0q0.265625 -0.3125 0.515625 -0.515625q0.25 -0.21875 0.5 -0.34375q0.25 -0.140625 0.5 -0.1875q0.265625 -0.0625 0.546875 -0.0625q0.953125 0 1.46875 0.578125q0.53125 0.578125 0.53125 1.75l0 4.15625zm7.874756 -4.234375q0 0.59375 -0.09375 1.140625q-0.09375 0.546875 -0.296875 1.015625q-0.203125 0.46875 -0.53125 0.859375q-0.3125 0.375 -0.796875 0.65625q-0.46875 0.265625 -1.09375 0.421875q-0.609375 0.140625 -1.40625 0.140625l-1.78125 0l0 -8.296875l2.140625 0q1.953125 0 2.90625 1.0q0.953125 1.0 0.953125 3.0625zm-1.1875 0.078125q0 -0.890625 -0.171875 -1.5q-0.15625 -0.609375 -0.5 -0.984375q-0.328125 -0.375 -0.84375 -0.53125q-0.5 -0.171875 -1.1875 -0.171875l-0.96875 0l0 6.359375l0.84375 0q2.828125 0 2.828125 -3.171875zm8.2341 0.640625q0 0.234375 -0.015625 0.390625q0 0.15625 -0.015625 0.296875l-4.484375 0q0 0.96875 0.546875 1.5q0.546875 0.515625 1.578125 0.515625q0.28125 0 0.5625 -0.015625q0.28125 -0.015625 0.53125 -0.046875q0.265625 -0.046875 0.5 -0.09375q0.25 -0.046875 0.453125 -0.109375l0 0.90625q-0.453125 0.125 -1.03125 0.203125q-0.5625 0.078125 -1.171875 0.078125q-0.8125 0 -1.40625 -0.21875q-0.59375 -0.21875 -0.96875 -0.640625q-0.375 -0.421875 -0.5625 -1.03125q-0.171875 -0.625 -0.171875 -1.390625q0 -0.671875 0.1875 -1.265625q0.1875 -0.609375 0.5625 -1.0625q0.375 -0.453125 0.90625 -0.71875q0.546875 -0.265625 1.234375 -0.265625q0.65625 0 1.171875 0.21875q0.515625 0.203125 0.859375 0.59375q0.359375 0.375 0.546875 0.921875q0.1875 0.546875 0.1875 1.234375zm-1.15625 -0.171875q0.015625 -0.421875 -0.09375 -0.765625q-0.09375 -0.359375 -0.3125 -0.609375q-0.203125 -0.25 -0.53125 -0.390625q-0.3125 -0.15625 -0.71875 -0.15625q-0.375 0 -0.671875 0.140625q-0.296875 0.140625 -0.515625 0.40625q-0.203125 0.25 -0.34375 0.609375q-0.125 0.34375 -0.171875 0.765625l3.359375 0zm8.749756 -4.25q-0.875 -0.1875 -1.5 -0.1875q-1.484375 0 -1.484375 1.5625l0 1.109375l2.78125 0l0 0.921875l-2.78125 0l0 4.53125l-1.125 0l0 -4.53125l-2.046875 0l0 -0.921875l2.046875 0l0 -1.046875q0 -2.546875 2.65625 -2.546875q0.65625 0 1.453125 0.15625l0 0.953125zm-6.671875 1.5625l0 0z" fill-rule="nonzero"></path><path fill="#fff2cc" d="m371.33762 191.48183l129.25986 0l0 35.527557l-129.25986 0z" fill-rule="evenodd"></path><path stroke="#000000" stroke-width="1.0" stroke-linejoin="round" stroke-linecap="butt" d="m371.33762 191.48183l129.25986 0l0 35.527557l-129.25986 0z" fill-rule="evenodd"></path><path fill="#000000" d="m398.8441 213.28181l-1.109375 0l-0.171875 -5.171875l-0.0625 -1.984375l-0.390625 1.15625l-1.21875 3.296875l-0.78125 0l-1.171875 -3.171875l-0.390625 -1.28125l-0.015625 2.078125l-0.15625 5.078125l-1.0625 0l0.40625 -8.296875l1.34375 0l1.109375 3.125l0.359375 1.046875l0.359375 -1.046875l1.171875 -3.125l1.375 0l0.40625 8.296875zm6.890381 -3.515625q0 0.234375 -0.015625 0.390625q0 0.15625 -0.015625 0.296875l-4.484375 0q0 0.96875 0.546875 1.5q0.546875 0.515625 1.578125 0.515625q0.28125 0 0.5625 -0.015625q0.28125 -0.015625 0.53125 -0.046875q0.265625 -0.046875 0.5 -0.09375q0.25 -0.046875 0.453125 -0.109375l0 0.90625q-0.453125 0.125 -1.03125 0.203125q-0.5625 0.078125 -1.171875 0.078125q-0.8125 0 -1.40625 -0.21875q-0.59375 -0.21875 -0.96875 -0.640625q-0.375 -0.421875 -0.5625 -1.03125q-0.171875 -0.625 -0.171875 -1.390625q0 -0.671875 0.1875 -1.265625q0.1875 -0.609375 0.5625 -1.0625q0.375 -0.453125 0.90625 -0.71875q0.546875 -0.265625 1.234375 -0.265625q0.65625 0 1.171875 0.21875q0.515625 0.203125 0.859375 0.59375q0.359375 0.375 0.546875 0.921875q0.1875 0.546875 0.1875 1.234375zm-1.15625 -0.171875q0.015625 -0.421875 -0.09375 -0.765625q-0.09375 -0.359375 -0.3125 -0.609375q-0.203125 -0.25 -0.53125 -0.390625q-0.3125 -0.15625 -0.71875 -0.15625q-0.375 0 -0.671875 0.140625q-0.296875 0.140625 -0.515625 0.40625q-0.203125 0.25 -0.34375 0.609375q-0.125 0.34375 -0.171875 0.765625l3.359375 0zm8.2341 3.59375q-0.375 0.09375 -0.78125 0.140625q-0.390625 0.046875 -0.8125 0.046875q-1.203125 0 -1.796875 -0.546875q-0.578125 -0.546875 -0.578125 -1.671875l0 -3.328125l-1.78125 0l0 -0.921875l1.78125 0l0 -1.75l1.09375 -0.28125l0 2.03125l2.875 0l0 0.921875l-2.875 0l0 3.25q0 0.671875 0.359375 1.015625q0.375 0.34375 1.09375 0.34375q0.296875 0 0.65625 -0.046875q0.359375 -0.046875 0.765625 -0.15625l0 0.953125zm6.281006 0.09375l-0.03125 -0.859375q-0.515625 0.515625 -1.0625 0.75q-0.53125 0.21875 -1.109375 0.21875q-0.546875 0 -0.9375 -0.140625q-0.390625 -0.140625 -0.640625 -0.375q-0.25 -0.25 -0.375 -0.578125q-0.109375 -0.328125 -0.109375 -0.71875q0 -0.953125 0.703125 -1.5q0.71875 -0.546875 2.125 -0.546875l1.3125 0l0 -0.546875q0 -0.578125 -0.359375 -0.90625q-0.359375 -0.34375 -1.109375 -0.34375q-0.53125 0 -1.0625 0.125q-0.515625 0.109375 -1.078125 0.34375l0 -1.0q0.21875 -0.078125 0.46875 -0.140625q0.25 -0.078125 0.53125 -0.140625q0.296875 -0.0625 0.609375 -0.09375q0.3125 -0.03125 0.625 -0.03125q0.578125 0 1.03125 0.125q0.46875 0.125 0.78125 0.390625q0.328125 0.25 0.5 0.65625q0.171875 0.390625 0.171875 0.921875l0 4.390625l-0.984375 0zm-0.125 -2.90625l-1.390625 0q-0.421875 0 -0.71875 0.09375q-0.296875 0.078125 -0.484375 0.234375q-0.1875 0.140625 -0.28125 0.359375q-0.09375 0.21875 -0.09375 0.484375q0 0.171875 0.046875 0.34375q0.0625 0.171875 0.1875 0.3125q0.125 0.125 0.328125 0.203125q0.203125 0.0625 0.5 0.0625q0.375 0 0.859375 -0.21875q0.5 -0.234375 1.046875 -0.734375l0 -1.140625zm8.7341 -3.96875q-0.46875 -0.25 -0.96875 -0.375q-0.484375 -0.140625 -1.046875 -0.140625q-0.671875 0 -1.1875 0.234375q-0.515625 0.234375 -0.875 0.671875q-0.34375 0.421875 -0.53125 1.03125q-0.1875 0.59375 -0.1875 1.328125q0 0.75 0.15625 1.359375q0.15625 0.59375 0.46875 1.015625q0.328125 0.421875 0.828125 0.65625q0.515625 0.21875 1.21875 0.21875q0.125 0 0.265625 -0.015625q0.140625 -0.015625 0.265625 -0.03125q0.140625 -0.03125 0.265625 -0.0625q0.140625 -0.03125 0.25 -0.0625l0 -2.640625l-1.703125 0l0 -0.9375l2.8125 0l0 4.234375q-0.265625 0.125 -0.546875 0.21875q-0.28125 0.09375 -0.59375 0.15625q-0.296875 0.0625 -0.59375 0.09375q-0.296875 0.03125 -0.578125 0.03125q-0.859375 0 -1.546875 -0.265625q-0.671875 -0.265625 -1.15625 -0.78125q-0.46875 -0.53125 -0.734375 -1.3125q-0.25 -0.78125 -0.25 -1.8125q0 -1.015625 0.28125 -1.828125q0.28125 -0.8125 0.796875 -1.375q0.53125 -0.5625 1.25 -0.84375q0.734375 -0.296875 1.609375 -0.296875q0.546875 0 1.046875 0.09375q0.515625 0.09375 0.984375 0.3125l0 1.125zm2.2185059 0.5l1.0 0l0.03125 1.171875q0.5625 -0.671875 1.109375 -0.96875q0.5625 -0.3125 1.109375 -0.3125q1.0 0 1.5 0.640625q0.515625 0.640625 0.484375 1.90625l-1.125 0q0.03125 -0.84375 -0.234375 -1.21875q-0.265625 -0.375 -0.78125 -0.375q-0.21875 0 -0.453125 0.078125q-0.21875 0.078125 -0.453125 0.25q-0.234375 0.171875 -0.5 0.453125q-0.265625 0.265625 -0.578125 0.65625l0 4.09375l-1.109375 0l0 -6.375zm11.155975 6.375l-0.03125 -0.859375q-0.515625 0.515625 -1.0625 0.75q-0.53125 0.21875 -1.109375 0.21875q-0.546875 0 -0.9375 -0.140625q-0.390625 -0.140625 -0.640625 -0.375q-0.25 -0.25 -0.375 -0.578125q-0.109375 -0.328125 -0.109375 -0.71875q0 -0.953125 0.703125 -1.5q0.71875 -0.546875 2.125 -0.546875l1.3125 0l0 -0.546875q0 -0.578125 -0.359375 -0.90625q-0.359375 -0.34375 -1.109375 -0.34375q-0.53125 0 -1.0625 0.125q-0.515625 0.109375 -1.078125 0.34375l0 -1.0q0.21875 -0.078125 0.46875 -0.140625q0.25 -0.078125 0.53125 -0.140625q0.296875 -0.0625 0.609375 -0.09375q0.3125 -0.03125 0.625 -0.03125q0.578125 0 1.03125 0.125q0.46875 0.125 0.78125 0.390625q0.328125 0.25 0.5 0.65625q0.171875 0.390625 0.171875 0.921875l0 4.390625l-0.984375 0zm-0.125 -2.90625l-1.390625 0q-0.421875 0 -0.71875 0.09375q-0.296875 0.078125 -0.484375 0.234375q-0.1875 0.140625 -0.28125 0.359375q-0.09375 0.21875 -0.09375 0.484375q0 0.171875 0.046875 0.34375q0.0625 0.171875 0.1875 0.3125q0.125 0.125 0.328125 0.203125q0.203125 0.0625 0.5 0.0625q0.375 0 0.859375 -0.21875q0.5 -0.234375 1.046875 -0.734375l0 -1.140625zm8.812256 -0.390625q0 0.84375 -0.25 1.484375q-0.234375 0.625 -0.65625 1.046875q-0.421875 0.421875 -1.0 0.640625q-0.5625 0.203125 -1.21875 0.203125q-0.3125 0 -0.609375 -0.03125q-0.296875 -0.03125 -0.609375 -0.109375l0 2.671875l-1.109375 0l0 -8.984375l0.984375 0l0.0625 1.0625q0.484375 -0.640625 1.015625 -0.90625q0.546875 -0.265625 1.171875 -0.265625q0.546875 0 0.953125 0.234375q0.421875 0.21875 0.703125 0.640625q0.28125 0.40625 0.421875 1.0q0.140625 0.578125 0.140625 1.3125zm-1.140625 0.046875q0 -0.5 -0.078125 -0.921875q-0.0625 -0.421875 -0.21875 -0.71875q-0.15625 -0.296875 -0.40625 -0.453125q-0.25 -0.171875 -0.59375 -0.171875q-0.203125 0 -0.421875 0.0625q-0.21875 0.0625 -0.453125 0.21875q-0.234375 0.15625 -0.5 0.421875q-0.25 0.25 -0.53125 0.625l0 3.09375q0.296875 0.125 0.625 0.203125q0.34375 0.078125 0.671875 0.078125q0.890625 0 1.390625 -0.609375q0.515625 -0.609375 0.515625 -1.828125zm8.14035 3.25l-1.109375 0l0 -4.0625q0 -0.75 -0.28125 -1.109375q-0.265625 -0.359375 -0.78125 -0.359375q-0.21875 0 -0.421875 0.0625q-0.1875 0.046875 -0.40625 0.203125q-0.203125 0.15625 -0.453125 0.40625q-0.25 0.25 -0.5625 0.625l0 4.234375l-1.109375 0l0 -8.96875l1.109375 0l0 2.59375l-0.046875 1.0q0.265625 -0.3125 0.515625 -0.515625q0.25 -0.21875 0.5 -0.34375q0.25 -0.140625 0.5 -0.1875q0.265625 -0.0625 0.546875 -0.0625q0.953125 0 1.46875 0.578125q0.53125 0.578125 0.53125 1.75l0 4.15625zm7.874756 -4.234375q0 0.59375 -0.09375 1.140625q-0.09375 0.546875 -0.296875 1.015625q-0.203125 0.46875 -0.53125 0.859375q-0.3125 0.375 -0.796875 0.65625q-0.46875 0.265625 -1.09375 0.421875q-0.609375 0.140625 -1.40625 0.140625l-1.78125 0l0 -8.296875l2.140625 0q1.953125 0 2.90625 1.0q0.953125 1.0 0.953125 3.0625zm-1.1875 0.078125q0 -0.890625 -0.171875 -1.5q-0.15625 -0.609375 -0.5 -0.984375q-0.328125 -0.375 -0.84375 -0.53125q-0.5 -0.171875 -1.1875 -0.171875l-0.96875 0l0 6.359375l0.84375 0q2.828125 0 2.828125 -3.171875zm8.2341 0.640625q0 0.234375 -0.015625 0.390625q0 0.15625 -0.015625 0.296875l-4.484375 0q0 0.96875 0.546875 1.5q0.546875 0.515625 1.578125 0.515625q0.28125 0 0.5625 -0.015625q0.28125 -0.015625 0.53125 -0.046875q0.265625 -0.046875 0.5 -0.09375q0.25 -0.046875 0.453125 -0.109375l0 0.90625q-0.453125 0.125 -1.03125 0.203125q-0.5625 0.078125 -1.171875 0.078125q-0.8125 0 -1.40625 -0.21875q-0.59375 -0.21875 -0.96875 -0.640625q-0.375 -0.421875 -0.5625 -1.03125q-0.171875 -0.625 -0.171875 -1.390625q0 -0.671875 0.1875 -1.265625q0.1875 -0.609375 0.5625 -1.0625q0.375 -0.453125 0.90625 -0.71875q0.546875 -0.265625 1.234375 -0.265625q0.65625 0 1.171875 0.21875q0.515625 0.203125 0.859375 0.59375q0.359375 0.375 0.546875 0.921875q0.1875 0.546875 0.1875 1.234375zm-1.15625 -0.171875q0.015625 -0.421875 -0.09375 -0.765625q-0.09375 -0.359375 -0.3125 -0.609375q-0.203125 -0.25 -0.53125 -0.390625q-0.3125 -0.15625 -0.71875 -0.15625q-0.375 0 -0.671875 0.140625q-0.296875 0.140625 -0.515625 0.40625q-0.203125 0.25 -0.34375 0.609375q-0.125 0.34375 -0.171875 0.765625l3.359375 0zm8.749756 -4.25q-0.875 -0.1875 -1.5 -0.1875q-1.484375 0 -1.484375 1.5625l0 1.109375l2.78125 0l0 0.921875l-2.78125 0l0 4.53125l-1.125 0l0 -4.53125l-2.046875 0l0 -0.921875l2.046875 0l0 -1.046875q0 -2.546875 2.65625 -2.546875q0.65625 0 1.453125 0.15625l0 0.953125zm-6.671875 1.5625l0 0z" fill-rule="nonzero"></path><path fill="#fff2cc" d="m107.99475 122.14173l0 0c0 -8.445175 34.682068 -15.291336 77.46457 -15.291336l0 0c42.7825 0 77.46457 6.846161 77.46457 15.291336l0 0c0 8.445168 -34.682068 15.291344 -77.46457 15.291344l0 0c-42.7825 0 -77.46457 -6.846176 -77.46457 -15.291344z" fill-rule="evenodd"></path><path stroke="#000000" stroke-width="1.0" stroke-linejoin="round" stroke-linecap="butt" d="m107.99475 122.14173l0 0c0 -8.445175 34.682068 -15.291336 77.46457 -15.291336l0 0c42.7825 0 77.46457 6.846161 77.46457 15.291336l0 0c0 8.445168 -34.682068 15.291344 -77.46457 15.291344l0 0c-42.7825 0 -77.46457 -6.846176 -77.46457 -15.291344z" fill-rule="evenodd"></path><path fill="#000000" d="m155.51796 124.472984l1.125 0.140625q-0.171875 1.171875 -0.9375 1.828125q-0.765625 0.65625 -1.859375 0.65625q-1.390625 0 -2.234375 -0.90625q-0.828125 -0.90625 -0.828125 -2.59375q0 -1.09375 0.359375 -1.90625q0.359375 -0.828125 1.09375 -1.234375q0.734375 -0.40625 1.609375 -0.40625q1.09375 0 1.796875 0.5625q0.703125 0.546875 0.890625 1.5625l-1.109375 0.171875q-0.15625 -0.671875 -0.5625 -1.015625q-0.390625 -0.34375 -0.96875 -0.34375q-0.859375 0 -1.40625 0.625q-0.53125 0.609375 -0.53125 1.953125q0 1.359375 0.515625 1.984375q0.515625 0.609375 1.359375 0.609375q0.671875 0 1.125 -0.40625q0.453125 -0.421875 0.5625 -1.28125zm2.2734375 2.46875l0 -9.3125l1.140625 0l0 3.34375q0.796875 -0.921875 2.015625 -0.921875q0.75 0 1.296875 0.296875q0.5625 0.296875 0.796875 0.8125q0.234375 0.515625 0.234375 1.515625l0 4.265625l-1.140625 0l0 -4.265625q0 -0.859375 -0.375 -1.25q-0.359375 -0.390625 -1.046875 -0.390625q-0.5 0 -0.953125 0.265625q-0.453125 0.25 -0.640625 0.703125q-0.1875 0.453125 -0.1875 1.25l0 3.6875l-1.140625 0zm12.021851 -2.171875l1.1875 0.140625q-0.28125 1.046875 -1.046875 1.625q-0.75 0.5625 -1.921875 0.5625q-1.484375 0 -2.359375 -0.90625q-0.859375 -0.921875 -0.859375 -2.5625q0 -1.703125 0.875 -2.640625q0.890625 -0.9375 2.28125 -0.9375q1.359375 0 2.203125 0.921875q0.859375 0.921875 0.859375 2.578125q0 0.109375 0 0.3125l-5.03125 0q0.0625 1.109375 0.625 1.703125q0.5625 0.59375 1.40625 0.59375q0.640625 0 1.078125 -0.328125q0.453125 -0.34375 0.703125 -1.0625zm-3.75 -1.84375l3.765625 0q-0.078125 -0.859375 -0.4375 -1.28125q-0.546875 -0.65625 -1.40625 -0.65625q-0.796875 0 -1.328125 0.53125q-0.53125 0.515625 -0.59375 1.40625zm10.943726 1.546875l1.125 0.140625q-0.171875 1.171875 -0.9375 1.828125q-0.765625 0.65625 -1.859375 0.65625q-1.390625 0 -2.234375 -0.90625q-0.828125 -0.90625 -0.828125 -2.59375q0 -1.09375 0.359375 -1.90625q0.359375 -0.828125 1.09375 -1.234375q0.734375 -0.40625 1.609375 -0.40625q1.09375 0 1.796875 0.5625q0.703125 0.546875 0.890625 1.5625l-1.109375 0.171875q-0.15625 -0.671875 -0.5625 -1.015625q-0.390625 -0.34375 -0.96875 -0.34375q-0.859375 0 -1.40625 0.625q-0.53125 0.609375 -0.53125 1.953125q0 1.359375 0.515625 1.984375q0.515625 0.609375 1.359375 0.609375q0.671875 0 1.125 -0.40625q0.453125 -0.421875 0.5625 -1.28125zm2.2734375 2.46875l0 -9.3125l1.140625 0l0 5.3125l2.703125 -2.734375l1.484375 0l-2.578125 2.5l2.84375 4.234375l-1.40625 0l-2.234375 -3.453125l-0.8125 0.78125l0 2.671875l-1.140625 0zm6.6640625 2.5781174l0 -9.312492l1.03125 0l0 0.875q0.375 -0.515625 0.828125 -0.765625q0.46875 -0.265625 1.140625 -0.265625q0.859375 0 1.515625 0.453125q0.65625 0.4375 0.984375 1.25q0.34375 0.796875 0.34375 1.765625q0 1.03125 -0.375 1.859375q-0.359375 0.828125 -1.078125 1.28125q-0.703125 0.4375 -1.484375 0.4375q-0.5625 0 -1.015625 -0.234375q-0.453125 -0.25 -0.75 -0.625l0 3.2812424l-1.140625 0zm1.03125 -5.9062424q0 1.296875 0.53125 1.921875q0.53125 0.625 1.265625 0.625q0.765625 0 1.3125 -0.640625q0.546875 -0.65625 0.546875 -2.0q0 -1.296875 -0.53125 -1.9375q-0.53125 -0.640625 -1.265625 -0.640625q-0.734375 0 -1.296875 0.6875q-0.5625 0.671875 -0.5625 1.984375zm5.9593506 -0.046875q0 -1.875 1.03125 -2.765625q0.875 -0.75 2.125 -0.75q1.390625 0 2.265625 0.90625q0.890625 0.90625 0.890625 2.515625q0 1.296875 -0.390625 2.046875q-0.390625 0.75 -1.140625 1.171875q-0.75 0.40625 -1.625 0.40625q-1.421875 0 -2.296875 -0.90625q-0.859375 -0.90625 -0.859375 -2.625zm1.171875 0q0 1.296875 0.5625 1.953125q0.5625 0.640625 1.421875 0.640625q0.84375 0 1.40625 -0.640625q0.578125 -0.65625 0.578125 -1.984375q0 -1.25 -0.578125 -1.890625q-0.5625 -0.65625 -1.40625 -0.65625q-0.859375 0 -1.421875 0.640625q-0.5625 0.640625 -0.5625 1.9375zm6.6624756 -4.609375l0 -1.328125l1.140625 0l0 1.328125l-1.140625 0zm0 7.984375l0 -6.734375l1.140625 0l0 6.734375l-1.140625 0zm2.96109 0l0 -6.734375l1.03125 0l0 0.953125q0.734375 -1.109375 2.140625 -1.109375q0.609375 0 1.109375 0.21875q0.515625 0.21875 0.765625 0.578125q0.265625 0.34375 0.359375 0.84375q0.0625 0.3125 0.0625 1.109375l0 4.140625l-1.140625 0l0 -4.09375q0 -0.703125 -0.140625 -1.046875q-0.125 -0.34375 -0.46875 -0.546875q-0.328125 -0.21875 -0.78125 -0.21875q-0.734375 0 -1.265625 0.46875q-0.53125 0.453125 -0.53125 1.75l0 3.6875l-1.140625 0zm9.912476 -1.015625l0.15625 1.0q-0.484375 0.109375 -0.859375 0.109375q-0.625 0 -0.96875 -0.203125q-0.34375 -0.203125 -0.484375 -0.515625q-0.140625 -0.328125 -0.140625 -1.34375l0 -3.890625l-0.828125 0l0 -0.875l0.828125 0l0 -1.671875l1.140625 -0.6875l0 2.359375l1.15625 0l0 0.875l-1.15625 0l0 3.953125q0 0.484375 0.0625 0.625q0.0625 0.140625 0.1875 0.21875q0.140625 0.078125 0.390625 0.078125q0.203125 0 0.515625 -0.03125zm0.7498627 -1.0l1.125 -0.171875q0.09375 0.671875 0.53125 1.046875q0.4375 0.359375 1.21875 0.359375q0.78125 0 1.15625 -0.3125q0.390625 -0.328125 0.390625 -0.765625q0 -0.390625 -0.34375 -0.609375q-0.234375 -0.15625 -1.171875 -0.390625q-1.25 -0.3125 -1.734375 -0.546875q-0.484375 -0.234375 -0.734375 -0.640625q-0.25 -0.40625 -0.25 -0.90625q0 -0.453125 0.203125 -0.828125q0.203125 -0.390625 0.5625 -0.640625q0.265625 -0.203125 0.71875 -0.328125q0.46875 -0.140625 1.0 -0.140625q0.78125 0 1.375 0.234375q0.609375 0.21875 0.890625 0.609375q0.296875 0.390625 0.40625 1.046875l-1.125 0.15625q-0.078125 -0.53125 -0.4375 -0.8125q-0.359375 -0.296875 -1.03125 -0.296875q-0.78125 0 -1.125 0.265625q-0.34375 0.25 -0.34375 0.609375q0 0.21875 0.140625 0.390625q0.140625 0.1875 0.4375 0.3125q0.171875 0.0625 1.015625 0.28125q1.21875 0.328125 1.6875 0.53125q0.484375 0.203125 0.75 0.609375q0.28125 0.390625 0.28125 0.96875q0 0.578125 -0.34375 1.078125q-0.328125 0.5 -0.953125 0.78125q-0.625 0.28125 -1.421875 0.28125q-1.3125 0 -2.0 -0.546875q-0.6875 -0.546875 -0.875 -1.625z" fill-rule="nonzero"></path><path fill="#fff2cc" d="m291.99475 122.14173l0 0c0 -8.445175 34.682068 -15.291336 77.46457 -15.291336l0 0c42.7825 0 77.46457 6.846161 77.46457 15.291336l0 0c0 8.445168 -34.682068 15.291344 -77.46457 15.291344l0 0c-42.7825 0 -77.46457 -6.846176 -77.46457 -15.291344z" fill-rule="evenodd"></path><path stroke="#000000" stroke-width="1.0" stroke-linejoin="round" stroke-linecap="butt" d="m291.99475 122.14173l0 0c0 -8.445175 34.682068 -15.291336 77.46457 -15.291336l0 0c42.7825 0 77.46457 6.846161 77.46457 15.291336l0 0c0 8.445168 -34.682068 15.291344 -77.46457 15.291344l0 0c-42.7825 0 -77.46457 -6.846176 -77.46457 -15.291344z" fill-rule="evenodd"></path><path fill="#000000" d="m355.44925 126.11361q-0.625 0.53125 -1.21875 0.765625q-0.578125 0.21875 -1.25 0.21875q-1.125 0 -1.71875 -0.546875q-0.59375 -0.546875 -0.59375 -1.390625q0 -0.484375 0.21875 -0.890625q0.234375 -0.421875 0.59375 -0.671875q0.375 -0.25 0.828125 -0.375q0.328125 -0.078125 1.015625 -0.171875q1.375 -0.15625 2.03125 -0.390625q0.015625 -0.234375 0.015625 -0.296875q0 -0.703125 -0.328125 -0.984375q-0.4375 -0.390625 -1.296875 -0.390625q-0.8125 0 -1.203125 0.28125q-0.375 0.28125 -0.5625 1.0l-1.109375 -0.140625q0.140625 -0.71875 0.484375 -1.15625q0.359375 -0.453125 1.015625 -0.6875q0.671875 -0.234375 1.53125 -0.234375q0.875 0 1.40625 0.203125q0.546875 0.203125 0.796875 0.515625q0.25 0.296875 0.359375 0.765625q0.046875 0.296875 0.046875 1.0625l0 1.515625q0 1.59375 0.078125 2.015625q0.078125 0.421875 0.28125 0.8125l-1.1875 0q-0.171875 -0.359375 -0.234375 -0.828125zm-0.09375 -2.5625q-0.625 0.265625 -1.859375 0.4375q-0.703125 0.109375 -1.0 0.234375q-0.296875 0.125 -0.453125 0.375q-0.15625 0.234375 -0.15625 0.53125q0 0.453125 0.34375 0.765625q0.34375 0.296875 1.015625 0.296875q0.65625 0 1.171875 -0.28125q0.515625 -0.296875 0.765625 -0.796875q0.171875 -0.375 0.171875 -1.140625l0 -0.421875zm2.6624756 1.375l1.125 -0.171875q0.09375 0.671875 0.53125 1.046875q0.4375 0.359375 1.21875 0.359375q0.78125 0 1.15625 -0.3125q0.390625 -0.328125 0.390625 -0.765625q0 -0.390625 -0.34375 -0.609375q-0.234375 -0.15625 -1.171875 -0.390625q-1.25 -0.3125 -1.734375 -0.546875q-0.484375 -0.234375 -0.734375 -0.640625q-0.25 -0.40625 -0.25 -0.90625q0 -0.453125 0.203125 -0.828125q0.203125 -0.390625 0.5625 -0.640625q0.265625 -0.203125 0.71875 -0.328125q0.46875 -0.140625 1.0 -0.140625q0.78125 0 1.375 0.234375q0.609375 0.21875 0.890625 0.609375q0.296875 0.390625 0.40625 1.046875l-1.125 0.15625q-0.078125 -0.53125 -0.4375 -0.8125q-0.359375 -0.296875 -1.03125 -0.296875q-0.78125 0 -1.125 0.265625q-0.34375 0.25 -0.34375 0.609375q0 0.21875 0.140625 0.390625q0.140625 0.1875 0.4375 0.3125q0.171875 0.0625 1.015625 0.28125q1.21875 0.328125 1.6875 0.53125q0.484375 0.203125 0.75 0.609375q0.28125 0.390625 0.28125 0.96875q0 0.578125 -0.34375 1.078125q-0.328125 0.5 -0.953125 0.78125q-0.625 0.28125 -1.421875 0.28125q-1.3125 0 -2.0 -0.546875q-0.6875 -0.546875 -0.875 -1.625zm6.6640625 0l1.125 -0.171875q0.09375 0.671875 0.53125 1.046875q0.4375 0.359375 1.21875 0.359375q0.78125 0 1.15625 -0.3125q0.390625 -0.328125 0.390625 -0.765625q0 -0.390625 -0.34375 -0.609375q-0.234375 -0.15625 -1.171875 -0.390625q-1.25 -0.3125 -1.734375 -0.546875q-0.484375 -0.234375 -0.734375 -0.640625q-0.25 -0.40625 -0.25 -0.90625q0 -0.453125 0.203125 -0.828125q0.203125 -0.390625 0.5625 -0.640625q0.265625 -0.203125 0.71875 -0.328125q0.46875 -0.140625 1.0 -0.140625q0.78125 0 1.375 0.234375q0.609375 0.21875 0.890625 0.609375q0.296875 0.390625 0.40625 1.046875l-1.125 0.15625q-0.078125 -0.53125 -0.4375 -0.8125q-0.359375 -0.296875 -1.03125 -0.296875q-0.78125 0 -1.125 0.265625q-0.34375 0.25 -0.34375 0.609375q0 0.21875 0.140625 0.390625q0.140625 0.1875 0.4375 0.3125q0.171875 0.0625 1.015625 0.28125q1.21875 0.328125 1.6875 0.53125q0.484375 0.203125 0.75 0.609375q0.28125 0.390625 0.28125 0.96875q0 0.578125 -0.34375 1.078125q-0.328125 0.5 -0.953125 0.78125q-0.625 0.28125 -1.421875 0.28125q-1.3125 0 -2.0 -0.546875q-0.6875 -0.546875 -0.875 -1.625zm11.7265625 -0.15625l1.1875 0.140625q-0.28125 1.046875 -1.046875 1.625q-0.75 0.5625 -1.921875 0.5625q-1.484375 0 -2.359375 -0.90625q-0.859375 -0.921875 -0.859375 -2.5625q0 -1.703125 0.875 -2.640625q0.890625 -0.9375 2.28125 -0.9375q1.359375 0 2.203125 0.921875q0.859375 0.921875 0.859375 2.578125q0 0.109375 0 0.3125l-5.03125 0q0.0625 1.109375 0.625 1.703125q0.5625 0.59375 1.40625 0.59375q0.640625 0 1.078125 -0.328125q0.453125 -0.34375 0.703125 -1.0625zm-3.75 -1.84375l3.765625 0q-0.078125 -0.859375 -0.4375 -1.28125q-0.546875 -0.65625 -1.40625 -0.65625q-0.796875 0 -1.328125 0.53125q-0.53125 0.515625 -0.59375 1.40625zm9.053101 3.0l0.15625 1.0q-0.484375 0.109375 -0.859375 0.109375q-0.625 0 -0.96875 -0.203125q-0.34375 -0.203125 -0.484375 -0.515625q-0.140625 -0.328125 -0.140625 -1.34375l0 -3.890625l-0.828125 0l0 -0.875l0.828125 0l0 -1.671875l1.140625 -0.6875l0 2.359375l1.15625 0l0 0.875l-1.15625 0l0 3.953125q0 0.484375 0.0625 0.625q0.0625 0.140625 0.1875 0.21875q0.140625 0.078125 0.390625 0.078125q0.203125 0 0.515625 -0.03125zm0.7498779 -1.0l1.125 -0.171875q0.09375 0.671875 0.53125 1.046875q0.4375 0.359375 1.21875 0.359375q0.78125 0 1.15625 -0.3125q0.390625 -0.328125 0.390625 -0.765625q0 -0.390625 -0.34375 -0.609375q-0.234375 -0.15625 -1.171875 -0.390625q-1.25 -0.3125 -1.734375 -0.546875q-0.484375 -0.234375 -0.734375 -0.640625q-0.25 -0.40625 -0.25 -0.90625q0 -0.453125 0.203125 -0.828125q0.203125 -0.390625 0.5625 -0.640625q0.265625 -0.203125 0.71875 -0.328125q0.46875 -0.140625 1.0 -0.140625q0.78125 0 1.375 0.234375q0.609375 0.21875 0.890625 0.609375q0.296875 0.390625 0.40625 1.046875l-1.125 0.15625q-0.078125 -0.53125 -0.4375 -0.8125q-0.359375 -0.296875 -1.03125 -0.296875q-0.78125 0 -1.125 0.265625q-0.34375 0.25 -0.34375 0.609375q0 0.21875 0.140625 0.390625q0.140625 0.1875 0.4375 0.3125q0.171875 0.0625 1.015625 0.28125q1.21875 0.328125 1.6875 0.53125q0.484375 0.203125 0.75 0.609375q0.28125 0.390625 0.28125 0.96875q0 0.578125 -0.34375 1.078125q-0.328125 0.5 -0.953125 0.78125q-0.625 0.28125 -1.421875 0.28125q-1.3125 0 -2.0 -0.546875q-0.6875 -0.546875 -0.875 -1.625z" fill-rule="nonzero"></path><path fill="#000000" fill-opacity="0.0" d="m131.96754 191.48183l53.480316 -54.047256" fill-rule="evenodd"></path><path stroke="#000000" stroke-width="1.0" stroke-linejoin="round" stroke-linecap="butt" d="m131.96754 191.48183l53.480316 -54.047256" fill-rule="evenodd"></path><path fill="#000000" fill-opacity="0.0" d="m283.96753 191.48183l-98.51967 -54.047256" fill-rule="evenodd"></path><path stroke="#000000" stroke-width="1.0" stroke-linejoin="round" stroke-linecap="butt" d="m283.96753 191.48183l-98.51967 -54.047256" fill-rule="evenodd"></path><path fill="#000000" fill-opacity="0.0" d="m435.96753 191.48183l-250.51967 -54.047256" fill-rule="evenodd"></path><path stroke="#000000" stroke-width="1.0" stroke-linejoin="round" stroke-linecap="butt" d="m435.96753 191.48183l-250.51967 -54.047256" fill-rule="evenodd"></path><path fill="#000000" fill-opacity="0.0" d="m131.96754 191.48183l237.4803 -54.047256" fill-rule="evenodd"></path><path stroke="#000000" stroke-width="1.0" stroke-linejoin="round" stroke-linecap="butt" d="m131.96754 191.48183l237.4803 -54.047256" fill-rule="evenodd"></path><path fill="#000000" fill-opacity="0.0" d="m283.96753 191.48183l85.480316 -54.047256" fill-rule="evenodd"></path><path stroke="#000000" stroke-width="1.0" stroke-linejoin="round" stroke-linecap="butt" d="m283.96753 191.48183l85.480316 -54.047256" fill-rule="evenodd"></path><path fill="#000000" fill-opacity="0.0" d="m435.96753 191.48183l-66.519684 -54.047256" fill-rule="evenodd"></path><path stroke="#000000" stroke-width="1.0" stroke-linejoin="round" stroke-linecap="butt" d="m435.96753 191.48183l-66.519684 -54.047256" fill-rule="evenodd"></path></g></svg>

